<svg xmlns="http://www.w3.org/2000/svg" width="12" height="7" viewBox="0 0 12 7">
<defs>
    <style>
      .cls-1 {
        fill: #fff;
        fill-rule: evenodd;
      }
    </style>
  </defs>
  <path id="_" data-name="" class="cls-1" d="M5.891,6.836a0.415,0.415,0,0,0,.277-0.121L11.785,1.1a0.415,0.415,0,0,0,.12-0.277,0.415,0.415,0,0,0-.12-0.277l-0.6-.6a0.379,0.379,0,0,0-.554,0L5.891,4.679,1.154-.058A0.415,0.415,0,0,0,.877-0.179,0.392,0.392,0,0,0,.6-0.058l-0.6.6A0.415,0.415,0,0,0-.123.822,0.415,0.415,0,0,0,0,1.1L5.614,6.716A0.415,0.415,0,0,0,5.891,6.836Z"/>
</svg>
